<svg width="272" height="64" viewBox="0 0 272 64" fill="none" xmlns="http://www.w3.org/2000/svg">
  <rect x="2" y="10" width="44" height="44" rx="14" fill="#2B7A78"/>
  <path d="M18 23H30C33.3137 23 36 25.6863 36 29V35C36 38.3137 33.3137 41 30 41H18V23Z" fill="white"/>
  <rect x="36" y="28" width="4" height="8" rx="2" fill="white"/>
  <path d="M22 28H30C30.5523 28 31 28.4477 31 29V35C31 35.5523 30.5523 36 30 36H22V28Z" fill="#2B7A78"/>
  <path d="M61 23.5H93.5" stroke="#111827" stroke-width="3" stroke-linecap="round"/>
  <path d="M61 31.5H110" stroke="#111827" stroke-width="3" stroke-linecap="round"/>
  <path d="M61 39.5H101" stroke="#2B7A78" stroke-width="3" stroke-linecap="round"/>
  <text x="119" y="31" fill="#111827" font-family="Arial, Helvetica, sans-serif" font-size="21" font-weight="700">RELIFE</text>
  <text x="119" y="49" fill="#2B7A78" font-family="Arial, Helvetica, sans-serif" font-size="15" font-weight="700" letter-spacing="1.4">BATTERY</text>
</svg>
